# xmcd
#
# Track frame offsets: 
#        150
#        83212
#        118853
#        138546
#        157359
#        199569
#
# Disc length: 4169 seconds
#
# Revision: 0
# Processed by: cddbd v1.5.2PL0 Copyright (c) Steve Scherf et al.
# Submitted via: ExactAudioCopy v1.0b1
#
DISCID=54104706
DTITLE=David Porcelijn, North German Radio Symphony - Röntgen: Symphon
DTITLE=ies nos. 8 and 15
DYEAR=2006
DGENRE=Classical
TTITLE0=Symphony, no. 08, c-sharp minor   Andante - Allegro agitato - 
TTITLE0=Lento
TTITLE1=Symphony, no. 15, f-sharp minor   Poco allegro sostenuto 
TTITLE2=Symphony, no. 15, f-sharp minor   Poco allegretto piacevole
TTITLE3=Symphony, no. 15, f-sharp minor   Lento
TTITLE4=Symphony, no. 15, f-sharp minor   Andante - Animato - Allegro 
TTITLE4=vivace
TTITLE5=Variations on a Norwegian Folk Melody, orchestra
EXTD=
EXTT0=
EXTT1=
EXTT2=
EXTT3=
EXTT4=
EXTT5=
PLAYORDER=
